# xmcd
# 
# Track frame offsets:
#     150
#     12212
#     30180
#     40092
#     53667
#     73580
#     91376
#     110307
#     126267
#     145942
# 
# Disc length: 2105
# 
# Revision: 0
# Processed by: cddbd v1.5.2PL0 Copyright (c) Steve Scherf et al.
# Submitted via: fre:ac v1.0.31
# 
DISCID=7908370a
DTITLE=Tracy Marie - True Blue
DYEAR=2014
DGENRE=Blues
TTITLE0=Real Good Time
TTITLE1=West Virginia
TTITLE2=Cleveland Bound
TTITLE3=True Blue
TTITLE4=Rainy Day
TTITLE5=I Could Use a Little Blues
TTITLE6=The Hard Road
TTITLE7=I'm Sorry
TTITLE8=The Only Falling
TTITLE9=Real Good Time (Instrumental)
EXTD=
EXTT0=
EXTT1=
EXTT2=
EXTT3=
EXTT4=
EXTT5=
EXTT6=
EXTT7=
EXTT8=
EXTT9=
PLAYORDER=
